# xmcd
# 
# Track frame offsets:
#     150
#     18970
#     33600
#     48900
#     72295
#     84600
#     99887
#     114985
#     141165
#     165445
#     178382
#     194355
#     220655
#     240312
#     260202
# 
# Disc length: 3669
# 
# Revision: 3
# Processed by: cddbd v1.5.2PL0 Copyright (c) Steve Scherf et al.
# Submitted via: BonkEnc v1.0.8
# 
DISCID=cb0e530f
DTITLE=David Bowie - Rarest One Bowie
DYEAR=1998
DGENRE=Rock
TTITLE0=All The Young Dudes (1973/July Studio,England)
TTITLE1=Queen Bitch (1976/Long Island, NY)
TTITLE2=Sound And Vision (1978/Earls Court, London)
TTITLE3=Time (1973/89 Flower Show, London)
TTITLE4=Be My Wife (1978/Earls Court, London)
TTITLE5=Foot Stomping (1974/Divetts Cobet T.V. Show, USA)
TTITLE6=Ziggy Stardust (1972/Santa Monica, CA)
TTITLE7=My Death (1972/Carnegie Hall, NY)
TTITLE8=I Feel Free (1978/Pory Tech, London)
TTITLE9=Hang Onto Yourself (1972/Santa Monica, CA)
TTITLE10=Changes (1972/Santa Monica, CA)
TTITLE11=I'm Waiting For The Man (1972/Santa Monica, CA)
TTITLE12=Jean Genie (1972/Santa Monica, CA)
TTITLE13=Suffragette City (1972/Santa Monica, CA)
TTITLE14=Rock 'N Roll Suicide (1972/Santa Monica, CA)
EXTD=YEAR: 1998
EXTT0=
EXTT1=
EXTT2=
EXTT3=
EXTT4=
EXTT5=
EXTT6=
EXTT7=
EXTT8=
EXTT9=
EXTT10=
EXTT11=
EXTT12=
EXTT13=
EXTT14=
PLAYORDER=
